<svg width="16" height="16" viewBox="0 0 16 16" fill="none" xmlns="http://www.w3.org/2000/svg">
<g clip-path="url(#clip0_3779_5266)">
<path d="M7.99935 12.0013C9.06022 12.0013 10.0776 11.5799 10.8278 10.8297C11.5779 10.0796 11.9993 9.06217 11.9993 8.0013C11.9993 6.94044 11.5779 5.92302 10.8278 5.17288C10.0776 4.42273 9.06022 4.0013 7.99935 4.0013C6.93848 4.0013 5.92107 4.42273 5.17092 5.17288C4.42078 5.92302 3.99935 6.94044 3.99935 8.0013C3.99935 9.06217 4.42078 10.0796 5.17092 10.8297C5.92107 11.5799 6.93848 12.0013 7.99935 12.0013ZM14.666 8.0013H15.3327ZM7.99935 1.33464V0.667969ZM7.99935 15.3346V14.668ZM13.3327 13.3346L12.666 12.668ZM13.3327 2.66797L12.666 3.33464ZM2.66602 13.3346L3.33268 12.668ZM2.66602 2.66797L3.33268 3.33464ZM0.666016 8.0013H1.33268Z" fill="#F3F3F3"/>
<path d="M14.666 8.0013H15.3327M7.99935 1.33464V0.667969M7.99935 15.3346V14.668M13.3327 13.3346L12.666 12.668M13.3327 2.66797L12.666 3.33464M2.66602 13.3346L3.33268 12.668M2.66602 2.66797L3.33268 3.33464M0.666016 8.0013H1.33268M7.99935 12.0013C9.06022 12.0013 10.0776 11.5799 10.8278 10.8297C11.5779 10.0796 11.9993 9.06217 11.9993 8.0013C11.9993 6.94044 11.5779 5.92302 10.8278 5.17288C10.0776 4.42273 9.06022 4.0013 7.99935 4.0013C6.93848 4.0013 5.92107 4.42273 5.17092 5.17288C4.42078 5.92302 3.99935 6.94044 3.99935 8.0013C3.99935 9.06217 4.42078 10.0796 5.17092 10.8297C5.92107 11.5799 6.93848 12.0013 7.99935 12.0013Z" stroke="#F3F3F3" stroke-width="0.5" stroke-linecap="round" stroke-linejoin="round"/>
</g>
<defs>
<clipPath id="clip0_3779_5266">
<rect width="16" height="16" fill="white"/>
</clipPath>
</defs>
</svg>
